<?xml version="1.0" standalone="no"?>
<!DOCTYPE svg PUBLIC "-//W3C//DTD SVG 20010904//EN"
 "http://www.w3.org/TR/2001/REC-SVG-20010904/DTD/svg10.dtd">
<svg version="1.0" xmlns="http://www.w3.org/2000/svg"
 width="350.000000pt" height="350.000000pt" viewBox="0 0 350.000000 350.000000"
 preserveAspectRatio="xMidYMid meet">
<metadata>
Created by potrace 1.14, written by Peter Selinger 2001-2017
</metadata>
<g transform="translate(0.000000,350.000000) scale(0.100000,-0.100000)"
fill="#000000" stroke="none">
<path d="M2555 2907 c-3 -7 -4 -118 -3 -247 l3 -235 455 0 c250 -1 462 1 471
3 15 3 16 30 15 245 l-1 242 -468 3 c-373 2 -469 0 -472 -11z"/>
<path d="M2590 2068 c-36 -13 -40 -41 -40 -253 0 -203 0 -206 24 -230 l23 -23
436 1 c423 2 437 3 451 22 13 16 15 59 16 236 0 206 -1 217 -21 235 -20 18
-44 19 -445 19 -233 0 -433 -3 -444 -7z m790 -249 l0 -136 -355 0 -354 0 0
131 c1 72 5 133 9 136 5 3 164 5 354 5 l346 0 0 -136z"/>
<path d="M1286 2063 c-3 -4 -6 -116 -6 -250 l0 -243 472 2 473 3 0 245 0 245
-467 2 c-256 1 -469 -1 -472 -4z"/>
<path d="M12 1205 c-10 -16 -8 -476 2 -482 7 -5 758 -7 909 -4 l27 1 0 245 c0
189 -3 245 -12 246 -7 1 -217 2 -466 3 -294 1 -456 -3 -460 -9z"/>
<path d="M1318 1212 l-38 -3 0 -245 c0 -225 1 -244 18 -245 113 -4 914 0 920
5 9 9 10 463 1 478 -5 7 -141 11 -435 12 -236 1 -446 0 -466 -2z"/>
<path d="M2605 1210 l-50 -5 -1 -238 c-1 -154 2 -240 9 -244 13 -8 912 -7 924
0 6 4 10 112 10 247 l0 240 -41 1 c-255 3 -812 3 -851 -1z"/>
</g>
</svg>
